<svg width="140" height="140" viewBox="0 0 140 140" fill="none" xmlns="http://www.w3.org/2000/svg">
<path d="M81.6669 103.304C81.6669 109.668 76.576 114.759 70.2124 114.759C63.8487 114.759 58.7578 109.668 58.7578 103.304C58.7578 96.9405 63.8487 91.8496 70.2124 91.8496C76.576 91.8496 81.6669 96.9405 81.6669 103.304Z" fill="#050385"/>
<path d="M124.097 103.304C124.097 109.668 119.006 114.759 112.642 114.759C106.278 114.759 101.188 109.668 101.188 103.304C101.188 96.9405 106.278 91.8496 112.642 91.8496C119.006 91.8496 124.097 96.9405 124.097 103.304Z" fill="#050385"/>
<path d="M135.971 134.274L133.001 126.001C131.728 121.334 127.698 118.153 122.819 118.153H102.455C97.7888 118.153 93.5464 121.334 92.2737 125.789L91.2131 128.334L90.5767 126.213C89.304 121.547 85.2737 118.365 80.3949 118.365H60.0313C59.3949 118.365 58.5464 118.365 57.91 118.577V73.8192H122.183C128.122 73.8192 132.789 69.1526 132.789 63.2132V12.5162C132.789 6.78894 128.122 1.91016 122.183 1.91016H18.0313C12.0919 1.91016 7.42519 6.57682 7.42519 12.5162V63.2132C7.42519 69.1526 12.0919 73.8192 18.0313 73.8192H22.2737V93.1223C18.6676 95.0314 16.1222 98.8496 16.1222 103.304C16.1222 109.668 21.2131 114.759 27.5767 114.759C33.9403 114.759 39.0313 109.668 39.0313 103.304C39.0313 96.9405 33.9403 91.8496 27.5767 91.8496C27.1525 91.8496 26.7282 91.8496 26.304 91.8496V64.4859C26.304 58.1223 31.607 52.8193 37.9706 52.8193H47.0919C54.9403 52.8193 67.2434 50.2738 74.4555 47.092L76.7888 46.0314C77.8494 45.6071 78.91 45.6071 79.9706 46.0314C81.0313 46.4556 81.8797 47.3041 82.0919 48.3647C82.7282 50.2738 81.8797 52.395 79.9706 53.2435L58.5464 58.7586C55.3646 59.6071 53.0313 62.5768 53.0313 65.7586V70.8496C53.0313 71.0617 53.0313 71.2738 53.0313 71.4859C53.0313 71.698 53.0313 71.9102 53.0313 71.9102V120.274C51.3343 121.547 49.8494 123.668 49.4252 125.789L48.7888 128.334L47.9403 125.789C46.6676 121.122 42.6373 117.94 37.7585 117.94H17.607C12.9403 117.94 8.69792 121.122 7.42519 125.577L4.24337 134.698C4.24337 135.122 4.03125 135.334 4.03125 135.759C4.03125 137.031 5.09186 137.88 6.15246 137.88H48.7888C49.001 138.092 49.4252 138.092 49.6373 138.092C49.8494 138.092 50.0616 138.092 50.2737 137.88C50.2737 137.88 50.2737 137.88 50.4858 137.88L133.637 137.668C134.486 137.668 135.334 137.031 135.546 136.183C135.971 135.759 136.183 135.122 135.971 134.274ZM57.91 65.9708C57.91 64.4859 58.9706 63.4253 60.2434 63.0011L81.8797 57.4859C81.8797 57.4859 82.0919 57.4859 82.0919 57.2738C85.4858 55.7889 87.3949 52.395 86.9706 48.7889L112.849 31.395C113.91 30.7586 114.122 29.4859 113.486 28.4253C112.849 27.3647 111.577 27.1526 110.516 27.7889L85.2737 44.7586C84.4252 43.698 83.3646 42.8496 82.0919 42.2132C79.9706 41.3647 77.4252 41.3647 75.304 42.2132L72.9706 43.2738C66.3949 46.2435 54.5161 48.5768 47.304 48.5768H38.1828C29.4858 48.5768 22.2737 55.7889 22.2737 64.4859V69.5768H18.0313C14.4252 69.5768 11.6676 66.6071 11.6676 63.2132V12.5162C11.6676 9.12228 14.4252 6.15258 18.0313 6.15258H122.183C125.577 6.15258 128.546 9.12228 128.546 12.5162V63.2132C128.546 66.6071 125.577 69.5768 122.183 69.5768H57.91V65.9708Z" fill="#050385"/>
<path d="M57.0639 32.2429C57.0639 39.2429 51.3366 44.9702 44.3366 44.9702C37.3366 44.9702 31.6094 39.2429 31.6094 32.2429C31.6094 25.2429 37.3366 19.5156 44.3366 19.5156C51.3366 19.5156 57.0639 25.2429 57.0639 32.2429Z" fill="#050385"/>
</svg>
