<svg width="140" height="140" viewBox="0 0 140 140" fill="none" xmlns="http://www.w3.org/2000/svg">
<g clip-path="url(#clip0_147_1202)">
<path d="M105 61.5081V24.43L80.5612 0H0V140H105V139.742C124.683 137.554 139.991 120.89 140 100.625C139.991 80.3513 124.683 63.6825 105 61.5081ZM78.7412 10.5569L94.4388 26.25H78.7412V10.5569ZM8.75 131.25V8.74125H70V34.9956H96.25V61.5081C88.585 62.3569 81.585 65.4019 75.8975 70H17.5V78.75H67.8869C66.0844 81.445 64.6362 84.3894 63.5381 87.5H17.5V96.25H61.5081C61.3463 97.6894 61.25 99.1419 61.25 100.625C61.25 113.002 66.9725 124.036 75.9019 131.25H8.75ZM100.625 130.738C83.9956 130.699 70.5425 117.246 70.5031 100.625C70.5425 83.9956 83.9956 70.5425 100.625 70.5031C117.246 70.5425 130.699 83.9956 130.738 100.625C130.699 117.246 117.246 130.699 100.625 130.738ZM87.5 52.5H17.5V61.25H87.5V52.5Z" fill="#050385"/>
<path d="M78.75 100.625L87.5 91.875L96.25 100.625L113.75 83.125L122.5 91.875L96.25 118.125L78.75 100.625Z" fill="#050385"/>
</g>
<defs>
<clipPath id="clip0_147_1202">
<rect width="140" height="140" fill="white"/>
</clipPath>
</defs>
</svg>
